<?xml version="1.0" encoding="UTF-8"?>
<svg xmlns="http://www.w3.org/2000/svg" xmlns:xlink="http://www.w3.org/1999/xlink" width="107px" height="99px" viewBox="0 0 106 99" version="1.1">
<g id="surface1">
<path style=" stroke:none;fill-rule:nonzero;fill:rgb(0%,0%,0%);fill-opacity:1;" d="M 29.582031 37.652344 C 30.089844 36.222656 30.804688 35.519531 31.71875 35.265625 C 31.390625 29.019531 32.40625 19.199219 26.070312 17.265625 C 38.640625 1.648438 53.121094 -6.886719 63.996094 7.027344 C 76.488281 7.6875 81.84375 26.800781 73.285156 36.230469 C 73.953125 36.195312 74.621094 36.335938 75.222656 36.636719 C 75.941406 37.023438 76.476562 37.683594 76.710938 38.46875 C 76.980469 39.515625 76.941406 40.621094 76.597656 41.644531 L 75.007812 46.269531 C 74.84375 46.941406 74.480469 47.546875 73.964844 48.003906 C 73.324219 48.46875 72.53125 48.667969 71.75 48.550781 C 71.597656 48.542969 71.445312 48.523438 71.296875 48.496094 C 71.191406 53.703125 68.660156 56.097656 65.355469 59.230469 L 64.089844 60.445312 C 60.738281 63.699219 57.082031 65.277344 53.363281 65.277344 C 49.640625 65.277344 45.734375 63.621094 42.238281 60.460938 L 40.988281 59.378906 C 37.753906 56.566406 35.050781 54.214844 34.53125 48.488281 L 34.238281 48.488281 C 33.574219 48.484375 32.917969 48.308594 32.335938 47.976562 C 31.375 47.367188 30.636719 46.449219 30.246094 45.375 C 29.746094 44.148438 29.453125 42.847656 29.382812 41.523438 C 29.382812 41.125 29.382812 40.324219 29.382812 39.5625 C 29.382812 38.796875 29.4375 38.269531 29.488281 37.90625 C 29.5 37.800781 29.527344 37.699219 29.566406 37.601562 Z M 38.671875 65.15625 L 46.59375 86.140625 L 50.589844 74.699219 L 48.636719 72.546875 C 47.757812 71.25 47.5625 70.117188 48.050781 69.144531 C 49.109375 67.039062 51.296875 67.410156 53.34375 67.410156 C 55.394531 67.410156 58.140625 67.003906 58.8125 69.703125 C 58.988281 70.699219 58.738281 71.726562 58.121094 72.53125 L 56.167969 74.699219 L 60.15625 86.140625 L 67.328125 65.15625 C 72.492188 69.847656 90.726562 70.792969 96.425781 73.996094 C 98.273438 75.011719 99.890625 76.402344 101.171875 78.082031 C 104.433594 82.421875 104.710938 88.570312 105.898438 93.890625 C 105.605469 96.996094 103.855469 98.78125 100.421875 99.042969 L 5.578125 99.042969 C 2.132812 98.78125 0.414062 96.988281 0.101562 93.890625 C 1.289062 88.492188 1.574219 82.421875 4.828125 78.082031 C 6.105469 76.394531 7.722656 75.003906 9.574219 73.996094 C 16.582031 70.066406 32.941406 70.359375 38.671875 65.15625 Z M 62.316406 18.738281 C 55.960938 25.238281 48.007812 23.234375 42.402344 25.792969 C 42.074219 25.992188 41.738281 26.21875 41.394531 26.453125 C 39.738281 27.53125 38.476562 29.117188 37.796875 30.980469 C 37.179688 32.992188 37.128906 35.136719 37.648438 37.175781 C 37.722656 37.417969 37.722656 37.679688 37.648438 37.921875 C 37.535156 38.238281 37.304688 38.492188 37.003906 38.632812 C 36.703125 38.777344 36.359375 38.792969 36.046875 38.675781 L 35.6875 38.539062 L 35.6875 38.730469 L 35.050781 38.304688 L 34.929688 38.304688 C 33.449219 37.785156 32.40625 37.539062 32.011719 38.476562 C 32.011719 38.78125 31.949219 39.242188 31.941406 39.726562 C 31.941406 40.410156 31.941406 41.132812 31.941406 41.460938 C 31.988281 42.488281 32.207031 43.5 32.585938 44.453125 C 32.78125 45.007812 33.144531 45.488281 33.621094 45.824219 C 33.835938 45.941406 34.078125 46.003906 34.324219 46.007812 C 34.671875 46 35.011719 45.941406 35.339844 45.835938 C 35.460938 45.792969 35.585938 45.769531 35.710938 45.765625 C 36.394531 45.753906 36.960938 46.300781 36.984375 46.988281 C 37.125 52.679688 39.628906 54.847656 42.675781 57.496094 L 43.941406 58.605469 C 47 61.347656 50.21875 62.761719 53.414062 62.761719 C 56.605469 62.761719 59.507812 61.398438 62.324219 58.613281 C 62.78125 58.164062 63.183594 57.746094 63.617188 57.382812 C 66.808594 54.355469 69.160156 52.125 68.710938 46.703125 C 68.667969 46.21875 68.902344 45.753906 69.3125 45.507812 C 69.726562 45.261719 70.242188 45.277344 70.640625 45.546875 C 70.835938 45.679688 71.042969 45.789062 71.261719 45.878906 C 71.433594 45.945312 71.617188 45.984375 71.804688 46 C 72.007812 46.023438 72.21875 46.015625 72.421875 45.980469 C 72.527344 45.800781 72.609375 45.605469 72.664062 45.402344 L 74.25 40.871094 C 74.433594 40.332031 74.464844 39.753906 74.34375 39.199219 C 74.304688 39.035156 74.203125 38.898438 74.058594 38.816406 C 73.8125 38.710938 73.542969 38.675781 73.277344 38.710938 C 72.460938 38.8125 71.6875 39.136719 71.046875 39.65625 C 70.769531 39.867188 70.421875 39.949219 70.082031 39.890625 C 69.40625 39.773438 68.949219 39.125 69.066406 38.441406 C 70.238281 31.503906 69.703125 27.035156 68.203125 23.972656 C 67.011719 21.566406 65.070312 19.625 62.675781 18.4375 L 62.324219 18.707031 Z M 49.175781 32.203125 C 50.425781 32.671875 50.691406 33.730469 49.996094 34.128906 C 49.296875 34.53125 48.128906 33.90625 47.328125 33.644531 C 45.226562 32.96875 42.730469 32.890625 40.921875 34.027344 C 40.394531 34.371094 39.902344 34.769531 39.449219 35.207031 C 39.609375 34.550781 39.902344 33.933594 40.308594 33.394531 C 42.125 31.078125 46.707031 30.945312 49.144531 32.203125 Z M 57.089844 32.203125 C 55.839844 32.671875 55.574219 33.730469 56.230469 34.128906 C 56.882812 34.53125 58.097656 33.90625 58.898438 33.644531 C 61 32.96875 63.488281 32.890625 65.304688 34.027344 C 65.828125 34.371094 66.320312 34.769531 66.773438 35.207031 C 66.613281 34.550781 66.320312 33.933594 65.914062 33.394531 C 64.097656 31.078125 59.515625 30.945312 57.082031 32.203125 Z M 42.632812 36.734375 C 42.5 36.78125 42.347656 36.769531 42.222656 36.699219 C 42.09375 36.628906 42.003906 36.511719 41.972656 36.367188 C 41.871094 36.070312 42.015625 35.746094 42.296875 35.613281 C 44.308594 34.824219 46.539062 34.824219 48.550781 35.613281 C 48.835938 35.734375 48.980469 36.054688 48.882812 36.351562 C 48.859375 36.492188 48.773438 36.617188 48.652344 36.6875 C 48.53125 36.761719 48.382812 36.777344 48.246094 36.734375 C 47.902344 36.613281 47.558594 36.507812 47.214844 36.421875 C 47.25 36.546875 47.265625 36.679688 47.265625 36.8125 C 47.308594 37.359375 47.042969 37.886719 46.574219 38.175781 C 46.109375 38.460938 45.523438 38.460938 45.054688 38.175781 C 44.589844 37.886719 44.324219 37.359375 44.363281 36.8125 C 44.363281 36.621094 44.402344 36.433594 44.476562 36.257812 C 43.84375 36.335938 43.226562 36.496094 42.632812 36.734375 Z M 59.429688 36.300781 C 59.371094 36.464844 59.339844 36.636719 59.335938 36.8125 C 59.292969 37.359375 59.5625 37.886719 60.027344 38.175781 C 60.492188 38.460938 61.082031 38.460938 61.546875 38.175781 C 62.011719 37.886719 62.28125 37.359375 62.238281 36.8125 C 62.238281 36.589844 62.1875 36.367188 62.082031 36.167969 C 62.734375 36.242188 63.375 36.382812 63.996094 36.59375 C 64.132812 36.632812 64.28125 36.613281 64.402344 36.535156 C 64.523438 36.457031 64.609375 36.328125 64.632812 36.1875 C 64.714844 35.886719 64.566406 35.570312 64.277344 35.449219 C 63.269531 35.117188 62.214844 34.941406 61.152344 34.9375 C 60.101562 34.9375 59.058594 35.113281 58.0625 35.457031 C 57.777344 35.578125 57.625 35.894531 57.710938 36.195312 C 57.738281 36.335938 57.824219 36.457031 57.941406 36.535156 C 58.0625 36.609375 58.210938 36.632812 58.347656 36.59375 C 58.703125 36.472656 59.0625 36.375 59.429688 36.300781 Z M 51.167969 48.957031 C 50.832031 48.671875 50.785156 48.164062 51.0625 47.820312 C 51.347656 47.480469 51.851562 47.433594 52.191406 47.71875 C 52.5 48.019531 52.90625 48.203125 53.335938 48.230469 C 53.785156 48.207031 54.207031 48.023438 54.53125 47.707031 C 54.691406 47.574219 54.902344 47.507812 55.109375 47.527344 C 55.316406 47.546875 55.511719 47.648438 55.644531 47.8125 C 55.777344 47.976562 55.84375 48.1875 55.824219 48.398438 C 55.804688 48.609375 55.703125 48.804688 55.539062 48.941406 C 54.921875 49.488281 54.132812 49.796875 53.308594 49.808594 C 52.515625 49.792969 51.75 49.484375 51.167969 48.941406 Z M 48.679688 54.8125 C 48.285156 54.585938 48.132812 54.089844 48.332031 53.675781 C 48.558594 53.28125 49.054688 53.128906 49.460938 53.332031 C 50.625 53.992188 51.933594 54.347656 53.265625 54.371094 C 54.585938 54.355469 55.875 54 57.019531 53.339844 C 57.285156 53.09375 57.667969 53.039062 57.988281 53.199219 C 58.308594 53.359375 58.496094 53.703125 58.460938 54.0625 C 58.425781 54.421875 58.175781 54.71875 57.828125 54.8125 C 56.445312 55.621094 54.875 56.050781 53.277344 56.054688 C 51.664062 56.023438 50.085938 55.597656 48.679688 54.8125 Z M 48.679688 54.8125 "/>
</g>
</svg>
